<?xml version="1.0" encoding="UTF-8" standalone="no"?>
<!-- Created with Inkscape (http://www.inkscape.org/) -->

<svg
   width="120"
   height="40"
   viewBox="0 0 31.75 10.583334"
   version="1.1"
   id="svg5"
   inkscape:version="1.1.1 (3bf5ae0d25, 2021-09-20)"
   sodipodi:docname="blog-logo.svg"
   xmlns:inkscape="http://www.inkscape.org/namespaces/inkscape"
   xmlns:sodipodi="http://sodipodi.sourceforge.net/DTD/sodipodi-0.dtd"
   xmlns="http://www.w3.org/2000/svg"
   xmlns:svg="http://www.w3.org/2000/svg">
  <sodipodi:namedview
     id="namedview7"
     pagecolor="#ffffff"
     bordercolor="#666666"
     borderopacity="1.0"
     inkscape:pageshadow="2"
     inkscape:pageopacity="0.0"
     inkscape:pagecheckerboard="0"
     inkscape:document-units="px"
     showgrid="true"
     units="px"
     height="40px"
     inkscape:zoom="5.6568543"
     inkscape:cx="79.284348"
     inkscape:cy="20.948038"
     inkscape:window-width="1920"
     inkscape:window-height="991"
     inkscape:window-x="-9"
     inkscape:window-y="-9"
     inkscape:window-maximized="1"
     inkscape:current-layer="layer1" />
  <defs
     id="defs2" />
  <g
     inkscape:label="Layer 1"
     inkscape:groupmode="layer"
     id="layer1">
    <g
       id="g6984"
       transform="matrix(1,0,0,0.9797909,0,0.21387423)">
      <g
         aria-label="Hax_Newz"
         transform="scale(0.74810844,1.3367046)"
         id="text6787"
         style="font-size:9.13326px;line-height:1.25;fill:#ececec;stroke-width:0.228331">
        <path
           d="M 2.6884519,2.3911821 V 3.9966379 H 2.1845172 v 2.305613 H 0.37391977 V 0.21489755 H 2.1845172 V 2.3911821 Z M 4.8067617,0.21489755 V 6.3022509 H 2.9961643 V 0.21489755 Z"
           style="font-family:'Bauhaus 93';-inkscape-font-specification:'Bauhaus 93, Normal'"
           id="path6905" />
        <path
           d="m 8.3699815,4.6343606 v 1.7258651 q -0.2051415,0.035677 -0.3746063,0.035677 -1.0034099,0 -1.6723498,-0.6600208 -0.66894,-0.6600207 -0.66894,-1.6545114 0,-0.9677331 0.6733996,-1.6411326 0.6778591,-0.6733995 1.6455922,-0.6733995 1.0792231,0 1.6991074,0.6332631 0.6243444,0.6288035 0.6243444,1.7214054 v 2.180744 H 8.6286383 v -2.060335 q 0,-0.3523084 -0.1739244,-0.5619095 -0.1694648,-0.2096012 -0.4593387,-0.2096012 -0.2631164,0 -0.4548792,0.1917628 -0.1917628,0.1917627 -0.1917628,0.4548791 0,0.2764952 0.1739244,0.4548792 0.1739244,0.1783839 0.4415004,0.1783839 0.2185203,0 0.4058235,-0.1159496 z"
           style="font-family:'Bauhaus 93';-inkscape-font-specification:'Bauhaus 93, Normal'"
           id="path6907" />
        <path
           d="m 13.5119,1.8560302 h 1.66789 v 0.9766523 q 0,0.4192023 -0.124869,0.6778591 -0.120409,0.2541971 -0.419202,0.4504195 0.303253,0.2051416 0.423662,0.4504196 0.120409,0.2452779 0.120409,0.6421823 V 6.3022509 H 13.5119 V 4.9599114 q 0,-0.4593387 -0.321091,-0.4593387 -0.312172,0 -0.312172,0.3969043 v 1.4047739 h -1.66789 V 5.1159974 q 0,-0.4102832 0.147166,-0.6689399 Q 11.50954,4.1884007 11.879687,3.9609611 11.50954,3.7201428 11.357913,3.4525668 11.210747,3.1849908 11.210747,2.7702481 V 1.8560302 h 1.66789 v 1.123819 q 0,0.1739244 0.08919,0.2854144 0.08919,0.11149 0.227439,0.11149 0.316632,0 0.316632,-0.3969044 z"
           style="font-family:'Bauhaus 93';-inkscape-font-specification:'Bauhaus 93, Normal'"
           id="path6909" />
        <path
           d="m 15.603452,6.7660492 h 4.56663 v 0.9543543 h -4.56663 z"
           style="font-family:'Bauhaus 93';-inkscape-font-specification:'Bauhaus 93, Normal'"
           id="path6911" />
        <path
           d="M 20.656178,6.3022509 V 2.3510457 q 0,-1.0390867 0.619885,-1.66343061 0.624344,-0.62434393 1.658971,-0.62434393 1.030167,0 1.574238,0.60650554 0.548531,0.6065055 0.548531,1.7437034 V 6.3022509 H 23.247206 V 2.4134801 q 0,-0.5574499 -0.396905,-0.5574499 -0.383525,0 -0.383525,0.5574499 v 3.8887708 z"
           style="font-family:'Bauhaus 93';-inkscape-font-specification:'Bauhaus 93, Normal'"
           id="path6913" />
        <path
           d="M 30.404863,4.3489463 H 27.87627 q -0.05798,-0.1917628 -0.05798,-0.3523084 0,-0.22298 0.08027,-0.4370407 h 0.847324 q -0.08919,-0.4950156 -0.55745,-0.4950156 -0.312172,0 -0.508395,0.267576 -0.196222,0.2631164 -0.196222,0.6778591 0,0.4325812 0.187303,0.7001571 0.191763,0.267576 0.499475,0.267576 0.249738,0 0.481637,-0.2497376 l 0.949895,1.1416575 q -0.664481,0.5217732 -1.476128,0.5217732 -0.990031,0 -1.66343,-0.6644804 -0.6734,-0.6644803 -0.6734,-1.6455922 0,-0.9766523 0.677859,-1.6500518 0.682319,-0.6733995 1.67235,-0.6733995 0.967733,0 1.623294,0.6600207 0.660021,0.6555611 0.660021,1.6188346 0,0.098111 -0.01784,0.312172 z"
           style="font-family:'Bauhaus 93';-inkscape-font-specification:'Bauhaus 93, Normal'"
           id="path6915" />
        <path
           d="m 31.096101,1.9184646 h 1.66789 v 2.3948049 q 0,0.2809548 0.05798,0.3924447 0.05797,0.1070304 0.209601,0.1070304 0.280955,0 0.280955,-0.4994751 V 1.9184646 h 1.66789 v 2.3948049 q 0,0.2809548 0.05797,0.3924447 0.06243,0.1070304 0.21406,0.1070304 0.276496,0 0.276496,-0.4994751 V 1.9184646 h 1.66789 v 2.738194 q 0,0.7492128 -0.503935,1.2754455 -0.503935,0.5217731 -1.22193,0.5217731 -0.740294,0 -1.328961,-0.6243439 -0.651101,0.6243439 -1.311122,0.6243439 -0.833945,0 -1.33788,-0.6065055 -0.396904,-0.4771771 -0.396904,-1.3780162 z"
           style="font-family:'Bauhaus 93';-inkscape-font-specification:'Bauhaus 93, Normal'"
           id="path6917" />
        <path
           d="m 41.883872,1.8560302 -1.364637,2.6980577 h 1.569779 v 1.748163 H 37.803339 L 39.159057,3.595274 H 37.749824 V 1.8560302 Z"
           style="font-family:'Bauhaus 93';-inkscape-font-specification:'Bauhaus 93, Normal'"
           id="path6919" />
      </g>
      <g
         aria-label="Hax_Newz"
         transform="scale(0.74810844,1.3367046)"
         id="text5161"
         style="font-size:9.13326px;line-height:1.25;fill:#cccccc;stroke-width:0.228331">
        <path
           d="M 2.333429,2.1723158 V 3.7777716 H 1.8294943 V 6.0833845 H 0.01889688 V -0.0039688 H 1.8294943 V 2.1723158 Z M 4.4517388,-0.0039688 V 6.0833845 H 2.6411414 v -6.0873533 z"
           style="font-family:'Bauhaus 93';-inkscape-font-specification:'Bauhaus 93, Normal'"
           id="path6888" />
        <path
           d="m 8.0149586,4.4154943 v 1.725865 q -0.2051415,0.035677 -0.3746063,0.035677 -1.0034099,0 -1.6723498,-0.6600207 -0.66894,-0.6600207 -0.66894,-1.6545114 0,-0.9677331 0.6733996,-1.6411327 0.6778591,-0.6733995 1.6455922,-0.6733995 1.0792231,0 1.6991074,0.6332632 0.6243439,0.6288035 0.6243439,1.7214054 V 6.0833845 H 8.2736154 v -2.060335 q 0,-0.3523083 -0.1739244,-0.5619095 -0.1694648,-0.2096012 -0.4593387,-0.2096012 -0.2631164,0 -0.4548792,0.1917628 -0.1917627,0.1917628 -0.1917627,0.4548792 0,0.2764951 0.1739243,0.4548791 0.1739244,0.178384 0.4415004,0.178384 0.2185204,0 0.4058235,-0.1159496 z"
           style="font-family:'Bauhaus 93';-inkscape-font-specification:'Bauhaus 93, Normal'"
           id="path6890" />
        <path
           d="m 13.156877,1.6371638 h 1.66789 v 0.9766523 q 0,0.4192024 -0.124868,0.6778591 -0.12041,0.2541972 -0.419203,0.4504196 0.303253,0.2051416 0.423662,0.4504195 0.120409,0.245278 0.120409,0.6421824 v 1.2486878 h -1.66789 V 4.7410451 q 0,-0.4593388 -0.321091,-0.4593388 -0.312172,0 -0.312172,0.3969044 v 1.4047738 h -1.66789 V 4.897131 q 0,-0.4102831 0.147167,-0.6689399 Q 11.154517,3.9695344 11.524664,3.7420948 11.154517,3.5012764 11.002891,3.2337004 10.855724,2.9661245 10.855724,2.5513817 V 1.6371638 h 1.66789 v 1.1238191 q 0,0.1739244 0.08919,0.2854144 0.08919,0.1114899 0.22744,0.1114899 0.316631,0 0.316631,-0.3969043 z"
           style="font-family:'Bauhaus 93';-inkscape-font-specification:'Bauhaus 93, Normal'"
           id="path6892" />
        <path
           d="m 15.248429,6.5471829 h 4.56663 v 0.9543543 h -4.56663 z"
           style="font-family:'Bauhaus 93';-inkscape-font-specification:'Bauhaus 93, Normal'"
           id="path6894" />
        <path
           d="M 20.301155,6.0833845 V 2.1321794 q 0,-1.0390867 0.619885,-1.66343065 0.624344,-0.62434393 1.658971,-0.62434393 1.030167,0 1.574238,0.60650553 Q 24.70278,1.0574159 24.70278,2.1946138 V 6.0833845 H 22.892183 V 2.1946138 q 0,-0.55745 -0.396905,-0.55745 -0.383525,0 -0.383525,0.55745 v 3.8887707 z"
           style="font-family:'Bauhaus 93';-inkscape-font-specification:'Bauhaus 93, Normal'"
           id="path6896" />
        <path
           d="m 30.04984,4.1300799 h -2.528593 q -0.05797,-0.1917627 -0.05797,-0.3523083 0,-0.22298 0.08027,-0.4370408 h 0.847324 q -0.08919,-0.4950155 -0.55745,-0.4950155 -0.312172,0 -0.508394,0.2675759 -0.196223,0.2631164 -0.196223,0.6778592 0,0.4325811 0.187303,0.7001571 0.191763,0.267576 0.499475,0.267576 0.249738,0 0.481637,-0.2497376 l 0.949895,1.1416575 q -0.66448,0.5217731 -1.476128,0.5217731 -0.990031,0 -1.66343,-0.6644803 -0.6734,-0.6644803 -0.6734,-1.6455922 0,-0.9766523 0.677859,-1.6500519 0.682319,-0.6733995 1.67235,-0.6733995 0.967733,0 1.623294,0.6600208 0.660021,0.6555611 0.660021,1.6188346 0,0.098111 -0.01784,0.3121719 z"
           style="font-family:'Bauhaus 93';-inkscape-font-specification:'Bauhaus 93, Normal'"
           id="path6898" />
        <path
           d="m 30.741078,1.6995982 h 1.66789 v 2.3948049 q 0,0.2809548 0.05797,0.3924448 0.05797,0.1070304 0.209601,0.1070304 0.280955,0 0.280955,-0.4994752 V 1.6995982 h 1.66789 v 2.3948049 q 0,0.2809548 0.05797,0.3924448 0.06243,0.1070304 0.214061,0.1070304 0.276495,0 0.276495,-0.4994752 V 1.6995982 h 1.66789 v 2.7381941 q 0,0.7492127 -0.503935,1.2754455 -0.503935,0.5217731 -1.22193,0.5217731 -0.740294,0 -1.328961,-0.6243439 -0.651101,0.6243439 -1.311122,0.6243439 -0.833945,0 -1.33788,-0.6065055 -0.396904,-0.4771772 -0.396904,-1.3780163 z"
           style="font-family:'Bauhaus 93';-inkscape-font-specification:'Bauhaus 93, Normal'"
           id="path6900" />
        <path
           d="m 41.52885,1.6371638 -1.364638,2.6980577 h 1.569779 v 1.748163 H 37.448316 L 38.804034,3.3764076 H 37.394801 V 1.6371638 Z"
           style="font-family:'Bauhaus 93';-inkscape-font-specification:'Bauhaus 93, Normal'"
           id="path6902" />
      </g>
      <g
         aria-label="Hax_Newz"
         transform="scale(0.74810844,1.3367046)"
         id="text835"
         style="font-size:9.13326px;line-height:1.25;stroke-width:0.228331">
        <path
           d="M 3.0392047,2.5880605 V 4.1935164 H 2.5352699 V 6.4991293 H 0.72467252 V 0.41177598 H 2.5352699 V 2.5880605 Z M 5.1575144,0.41177598 V 6.4991293 H 3.346917 V 0.41177598 Z"
           style="font-family:'Bauhaus 93';-inkscape-font-specification:'Bauhaus 93, Normal'"
           id="path6922" />
        <path
           d="m 8.7207343,4.8312391 v 1.725865 q -0.2051416,0.035677 -0.3746064,0.035677 -1.0034099,0 -1.6723498,-0.6600207 -0.6689399,-0.6600208 -0.6689399,-1.6545115 0,-0.967733 0.6733995,-1.6411326 0.6778591,-0.6733995 1.6455922,-0.6733995 1.0792231,0 1.6991071,0.6332631 0.624344,0.6288036 0.624344,1.7214054 v 2.180744 H 8.9793911 v -2.060335 q 0,-0.3523083 -0.1739244,-0.5619095 -0.1694648,-0.2096012 -0.4593388,-0.2096012 -0.2631163,0 -0.4548791,0.1917628 -0.1917628,0.1917628 -0.1917628,0.4548791 0,0.2764952 0.1739244,0.4548792 0.1739244,0.178384 0.4415003,0.178384 0.2185204,0 0.4058236,-0.1159496 z"
           style="font-family:'Bauhaus 93';-inkscape-font-specification:'Bauhaus 93, Normal'"
           id="path6924" />
        <path
           d="m 13.862653,2.0529086 h 1.66789 v 0.9766523 q 0,0.4192023 -0.124869,0.6778591 -0.120409,0.2541972 -0.419202,0.4504196 0.303253,0.2051415 0.423662,0.4504195 0.120409,0.245278 0.120409,0.6421823 v 1.2486879 h -1.66789 V 5.1567898 q 0,-0.4593387 -0.321091,-0.4593387 -0.312172,0 -0.312172,0.3969044 V 6.4991293 H 11.561499 V 5.3128758 q 0,-0.4102831 0.147167,-0.6689399 Q 11.860293,4.3852791 12.230439,4.1578396 11.860293,3.9170212 11.708666,3.6494452 11.561499,3.3818692 11.561499,2.9671265 V 2.0529086 h 1.667891 v 1.1238191 q 0,0.1739243 0.08919,0.2854143 0.08919,0.11149 0.227439,0.11149 0.316632,0 0.316632,-0.3969043 z"
           style="font-family:'Bauhaus 93';-inkscape-font-specification:'Bauhaus 93, Normal'"
           id="path6926" />
        <path
           d="m 15.954204,6.9629276 h 4.56663 v 0.9543543 h -4.56663 z"
           style="font-family:'Bauhaus 93';-inkscape-font-specification:'Bauhaus 93, Normal'"
           id="path6928" />
        <path
           d="M 21.006931,6.4991293 V 2.5479241 q 0,-1.0390866 0.619884,-1.66343057 0.624344,-0.62434393 1.658971,-0.62434393 1.030168,0 1.574239,0.60650553 0.548531,0.60650557 0.548531,1.74370337 V 6.4991293 H 23.597958 V 2.6103585 q 0,-0.5574499 -0.396904,-0.5574499 -0.383525,0 -0.383525,0.5574499 v 3.8887708 z"
           style="font-family:'Bauhaus 93';-inkscape-font-specification:'Bauhaus 93, Normal'"
           id="path6930" />
        <path
           d="m 30.755615,4.5458247 h -2.528592 q -0.05797,-0.1917628 -0.05797,-0.3523083 0,-0.22298 0.08027,-0.4370408 h 0.847323 q -0.08919,-0.4950155 -0.557449,-0.4950155 -0.312172,0 -0.508395,0.2675759 -0.196222,0.2631164 -0.196222,0.6778592 0,0.4325811 0.187303,0.7001571 0.191763,0.2675759 0.499475,0.2675759 0.249738,0 0.481637,-0.2497375 l 0.949895,1.1416574 q -0.664481,0.5217732 -1.476128,0.5217732 -0.990031,0 -1.663431,-0.6644803 -0.673399,-0.6644804 -0.673399,-1.6455923 0,-0.9766522 0.677859,-1.6500518 0.682319,-0.6733995 1.67235,-0.6733995 0.967733,0 1.623294,0.6600207 0.660021,0.6555612 0.660021,1.6188347 0,0.098111 -0.01784,0.3121719 z"
           style="font-family:'Bauhaus 93';-inkscape-font-specification:'Bauhaus 93, Normal'"
           id="path6932" />
        <path
           d="m 31.446853,2.115343 h 1.667891 v 2.3948049 q 0,0.2809548 0.05797,0.3924448 0.05797,0.1070304 0.209602,0.1070304 0.280954,0 0.280954,-0.4994752 V 2.115343 h 1.667891 v 2.3948049 q 0,0.2809548 0.05797,0.3924448 0.06244,0.1070304 0.214061,0.1070304 0.276495,0 0.276495,-0.4994752 V 2.115343 h 1.667891 v 2.7381941 q 0,0.7492127 -0.503935,1.2754454 -0.503935,0.5217732 -1.22193,0.5217732 -0.740294,0 -1.328961,-0.624344 -0.651102,0.624344 -1.311122,0.624344 -0.833945,0 -1.33788,-0.6065056 Q 31.446853,5.567073 31.446853,4.6662339 Z"
           style="font-family:'Bauhaus 93';-inkscape-font-specification:'Bauhaus 93, Normal'"
           id="path6934" />
        <path
           d="m 42.234625,2.0529086 -1.364637,2.6980577 h 1.569779 v 1.748163 H 38.154092 L 39.50981,3.7921524 H 38.100576 V 2.0529086 Z"
           style="font-family:'Bauhaus 93';-inkscape-font-specification:'Bauhaus 93, Normal'"
           id="path6936" />
      </g>
    </g>
  </g>
</svg>
